# xmcd
#
# Track frame offsets:
# 150
# 15985
# 32251
# 46729
# 62428
# 78592
# 99601
# 115280
# 129483
# 145971
# 162142
# 176778
# 192378
# 211539
# 227740
# 244209
# 258330
# 277101
# 293109
# 309561
# 328744
# 342173
#
# Disc length: 4781 seconds
#
#
# Revision: 2
# Processed by: cddbd v1.5.2PL0 Copyright (c) Steve Scherf et al.
# Submitted via: FreeRIP 2.92 
#
DISCID=3512ab16
DTITLE=Various Artist - Maximum Hit Music - Best Of 2012 - CD 1
DYEAR=2012
DGENRE=Top 40
TTITLE0=Asaf Avidan and The Mojos - One Day - Reckoning Song
TTITLE1=Gers Pardoel - Ik Neem Je Mee
TTITLE2=Carly Rae Jepsen - Call Me Maybe
TTITLE3=David Guetta Feat. Sia - She Wolf (Falling To Pieces)
TTITLE4=Coldplay and Rihanna - Princess Of China
TTITLE5=Will.I.Am Feat. Eva Simons - This Is Love
TTITLE6=Swedish House Mafia Feat. John Martin - Don't You Worry Child
TTITLE7=Goodwill and Hook N Sling - Take You Higher
TTITLE8=Rudimental Feat. John Newman - Feel The Love
TTITLE9=Triggerfinger - I Follow Rivers
TTITLE10=Emeli Sandé - Next To Me
TTITLE11=Marco Z - I'm A Bird
TTITLE12=Birdy - People Help The People
TTITLE13=Florence and The Machine - Spectrum (Say My Name)
TTITLE14=Usher - Numb
TTITLE15=Otto Knows - Million Voices
TTITLE16=Netsky - Love Has Gone
TTITLE17=Parachute Youth - Can't Get Better Than This
TTITLE18=Katy Perry - Wide Awake
TTITLE19=P!nk - Blow Me (One Last Kiss)
TTITLE20=Loreen - Euphoria
TTITLE21=Sam Sparro - Happiness (The Magician Remix)
EXTD=
EXTT0=
EXTT1=
EXTT2=
EXTT3=
EXTT4=
EXTT5=
EXTT6=
EXTT7=
EXTT8=
EXTT9=
EXTT10=
EXTT11=
EXTT12=
EXTT13=
EXTT14=
EXTT15=
EXTT16=
EXTT17=
EXTT18=
EXTT19=
EXTT20=
EXTT21=
PLAYORDER=
